<svg width="54" height="54" viewBox="0 0 54 54" fill="none" xmlns="http://www.w3.org/2000/svg">
<path d="M27 45C31.7739 45 36.3523 43.1036 39.7279 39.7279C43.1036 36.3523 45 31.7739 45 27C45 22.2261 43.1036 17.6477 39.7279 14.2721C36.3523 10.8964 31.7739 9 27 9C22.2261 9 17.6477 10.8964 14.2721 14.2721C10.8964 17.6477 9 22.2261 9 27C9 31.7739 10.8964 36.3523 14.2721 39.7279C17.6477 43.1036 22.2261 45 27 45ZM27 4.5C29.9547 4.5 32.8806 5.08198 35.6104 6.21271C38.3402 7.34344 40.8206 9.00078 42.9099 11.0901C44.9992 13.1794 46.6566 15.6598 47.7873 18.3896C48.918 21.1194 49.5 24.0453 49.5 27C49.5 32.9674 47.1295 38.6903 42.9099 42.9099C38.6903 47.1295 32.9674 49.5 27 49.5C14.5575 49.5 4.5 39.375 4.5 27C4.5 21.0326 6.87053 15.3097 11.0901 11.0901C15.3097 6.87053 21.0326 4.5 27 4.5ZM28.125 15.75V27.5625L38.25 33.57L36.5625 36.3375L24.75 29.25V15.75H28.125Z" fill="#1E6099"/>
</svg>
