<svg width="20" height="20" viewBox="0 0 20 20" fill="none" xmlns="http://www.w3.org/2000/svg">
<path d="M10.0008 7.50008C9.33778 7.50008 8.7019 7.76347 8.23306 8.23231C7.76421 8.70115 7.50082 9.33704 7.50082 10.0001C7.50082 10.6631 7.76421 11.299 8.23306 11.7678C8.7019 12.2367 9.33778 12.5001 10.0008 12.5001C10.6639 12.5001 11.2997 12.2367 11.7686 11.7678C12.2374 11.299 12.5008 10.6631 12.5008 10.0001C12.5008 9.33704 12.2374 8.70115 11.7686 8.23231C11.2997 7.76347 10.6639 7.50008 10.0008 7.50008ZM10.0008 5.83341C11.1059 5.83341 12.1657 6.2724 12.9471 7.0538C13.7285 7.8352 14.1675 8.89501 14.1675 10.0001C14.1675 11.1052 13.7285 12.165 12.9471 12.9464C12.1657 13.7278 11.1059 14.1667 10.0008 14.1667C8.89575 14.1667 7.83595 13.7278 7.05454 12.9464C6.27314 12.165 5.83416 11.1052 5.83416 10.0001C5.83416 8.89501 6.27314 7.8352 7.05454 7.0538C7.83595 6.2724 8.89575 5.83341 10.0008 5.83341ZM15.4175 5.62508C15.4175 5.90135 15.3077 6.1663 15.1124 6.36165C14.917 6.557 14.6521 6.66675 14.3758 6.66675C14.0996 6.66675 13.8346 6.557 13.6393 6.36165C13.4439 6.1663 13.3342 5.90135 13.3342 5.62508C13.3342 5.34881 13.4439 5.08386 13.6393 4.88851C13.8346 4.69316 14.0996 4.58341 14.3758 4.58341C14.6521 4.58341 14.917 4.69316 15.1124 4.88851C15.3077 5.08386 15.4175 5.34881 15.4175 5.62508ZM10.0008 3.33341C7.93916 3.33341 7.60249 3.33925 6.64332 3.38175C5.98999 3.41258 5.55166 3.50008 5.14499 3.65841C4.80485 3.78372 4.49726 3.98394 4.24499 4.24425C3.98438 4.49643 3.78387 4.80403 3.65832 5.14425C3.49999 5.55258 3.41249 5.99008 3.38249 6.64258C3.33916 7.56258 3.33332 7.88425 3.33332 10.0001C3.33332 12.0626 3.33916 12.3984 3.38166 13.3576C3.41249 14.0101 3.49999 14.4492 3.65749 14.8551C3.79916 15.2176 3.96582 15.4784 4.24249 15.7551C4.52332 16.0351 4.78416 16.2026 5.14249 16.3409C5.55416 16.5001 5.99249 16.5884 6.64249 16.6184C7.56249 16.6617 7.88416 16.6667 9.99999 16.6667C12.0625 16.6667 12.3983 16.6609 13.3575 16.6184C14.0092 16.5876 14.4475 16.5001 14.855 16.3426C15.1951 16.2173 15.5027 16.0171 15.755 15.7567C16.0358 15.4767 16.2033 15.2159 16.3417 14.8567C16.5 14.4467 16.5883 14.0084 16.6183 13.3567C16.6617 12.4376 16.6667 12.1151 16.6667 10.0001C16.6667 7.93841 16.6608 7.60175 16.6183 6.64258C16.5875 5.99091 16.4992 5.55091 16.3417 5.14425C16.2163 4.80411 16.0161 4.49652 15.7558 4.24425C15.5036 3.98364 15.196 3.78313 14.8558 3.65758C14.4475 3.49925 14.0092 3.41175 13.3575 3.38175C12.4383 3.33841 12.1167 3.33341 9.99999 3.33341M9.99999 1.66675C12.2642 1.66675 12.5467 1.67508 13.4358 1.71675C14.3225 1.75841 14.9275 1.89758 15.4583 2.10425C16.0083 2.31591 16.4717 2.60258 16.935 3.06508C17.3589 3.48153 17.6868 3.98547 17.8958 4.54175C18.1017 5.07258 18.2417 5.67758 18.2833 6.56508C18.3225 7.45341 18.3333 7.73591 18.3333 10.0001C18.3333 12.2642 18.325 12.5467 18.2833 13.4351C18.2417 14.3234 18.1017 14.9267 17.8958 15.4584C17.6868 16.0147 17.3589 16.5186 16.935 16.9351C16.5185 17.359 16.0146 17.6869 15.4583 17.8959C14.9275 18.1017 14.3225 18.2417 13.4358 18.2834C12.5467 18.3226 12.2642 18.3334 9.99999 18.3334C7.73582 18.3334 7.45332 18.3251 6.56416 18.2834C5.67749 18.2417 5.07332 18.1017 4.54166 17.8959C3.98538 17.6869 3.48143 17.359 3.06499 16.9351C2.64108 16.5186 2.31317 16.0147 2.10416 15.4584C1.89749 14.9276 1.75832 14.3226 1.71666 13.4351C1.67666 12.5467 1.66666 12.2642 1.66666 10.0001C1.66666 7.73591 1.67499 7.45341 1.71666 6.56508C1.75832 5.67675 1.89749 5.07341 2.10416 4.54175C2.31317 3.98547 2.64108 3.48153 3.06499 3.06508C3.48143 2.64117 3.98538 2.31326 4.54166 2.10425C5.07249 1.89758 5.67666 1.75841 6.56416 1.71675C7.45416 1.67758 7.73666 1.66675 10.0008 1.66675" fill="#1E6099"/>
</svg>
