<svg width="17" height="17" viewBox="0 0 17 17" fill="none" xmlns="http://www.w3.org/2000/svg">
<path d="M14.1667 7.08317C14.1667 11.6873 8.50001 15.5832 8.50001 15.5832C8.50001 15.5832 2.83334 11.6873 2.83334 7.08317C2.83334 5.58028 3.43037 4.13894 4.49307 3.07623C5.55578 2.01353 6.99712 1.4165 8.50001 1.4165C10.0029 1.4165 11.4442 2.01353 12.5069 3.07623C13.5697 4.13894 14.1667 5.58028 14.1667 7.08317Z" stroke="#1E6099" stroke-width="2"/>
<path d="M10.625 7.08301C10.625 7.64659 10.4011 8.1871 10.0026 8.58561C9.60409 8.98412 9.06358 9.20801 8.5 9.20801C7.93641 9.20801 7.39591 8.98412 6.9974 8.58561C6.59888 8.1871 6.375 7.64659 6.375 7.08301C6.375 6.51942 6.59888 5.97892 6.9974 5.58041C7.39591 5.18189 7.93641 4.95801 8.5 4.95801C9.06358 4.95801 9.60409 5.18189 10.0026 5.58041C10.4011 5.97892 10.625 6.51942 10.625 7.08301Z" stroke="#1E6099" stroke-width="2"/>
</svg>
