<svg width="54" height="54" viewBox="0 0 54 54" fill="none" xmlns="http://www.w3.org/2000/svg">
<path d="M23.625 21.375H21.375V19.125C21.375 18.5283 21.1379 17.956 20.716 17.534C20.294 17.1121 19.7217 16.875 19.125 16.875C18.5283 16.875 17.956 17.1121 17.534 17.534C17.1121 17.956 16.875 18.5283 16.875 19.125V21.375H14.625C14.0283 21.375 13.456 21.6121 13.034 22.034C12.6121 22.456 12.375 23.0283 12.375 23.625C12.375 24.2217 12.6121 24.794 13.034 25.216C13.456 25.6379 14.0283 25.875 14.625 25.875H16.875V28.125C16.875 28.7217 17.1121 29.294 17.534 29.716C17.956 30.1379 18.5283 30.375 19.125 30.375C19.7217 30.375 20.294 30.1379 20.716 29.716C21.1379 29.294 21.375 28.7217 21.375 28.125V25.875H23.625C24.2217 25.875 24.794 25.6379 25.216 25.216C25.6379 24.794 25.875 24.2217 25.875 23.625C25.875 23.0283 25.6379 22.456 25.216 22.034C24.794 21.6121 24.2217 21.375 23.625 21.375ZM51.5925 26.2125L51.4575 25.965C51.419 25.8536 51.366 25.7477 51.3 25.65L45.9 18.45C45.2713 17.6117 44.456 16.9313 43.5187 16.4626C42.5814 15.994 41.5479 15.75 40.5 15.75H36V13.5C36 11.7098 35.2888 9.9929 34.023 8.72703C32.7571 7.46116 31.0402 6.75 29.25 6.75H9C7.20979 6.75 5.4929 7.46116 4.22703 8.72703C2.96116 9.9929 2.25 11.7098 2.25 13.5V38.25C2.25 38.8467 2.48705 39.419 2.90901 39.841C3.33097 40.2629 3.90326 40.5 4.5 40.5H6.75C6.75 42.2902 7.46116 44.0071 8.72703 45.273C9.9929 46.5388 11.7098 47.25 13.5 47.25C15.2902 47.25 17.0071 46.5388 18.273 45.273C19.5388 44.0071 20.25 42.2902 20.25 40.5H33.75C33.75 42.2902 34.4612 44.0071 35.727 45.273C36.9929 46.5388 38.7098 47.25 40.5 47.25C42.2902 47.25 44.0071 46.5388 45.273 45.273C46.5388 44.0071 47.25 42.2902 47.25 40.5H49.5C50.0967 40.5 50.669 40.2629 51.091 39.841C51.5129 39.419 51.75 38.8467 51.75 38.25V27C51.7452 26.7302 51.6918 26.4634 51.5925 26.2125ZM13.5 42.75C13.055 42.75 12.62 42.618 12.25 42.3708C11.88 42.1236 11.5916 41.7722 11.4213 41.361C11.251 40.9499 11.2064 40.4975 11.2932 40.061C11.38 39.6246 11.5943 39.2237 11.909 38.909C12.2237 38.5943 12.6246 38.38 13.061 38.2932C13.4975 38.2064 13.9499 38.251 14.361 38.4213C14.7722 38.5916 15.1236 38.88 15.3708 39.25C15.618 39.62 15.75 40.055 15.75 40.5C15.75 41.0967 15.5129 41.669 15.091 42.091C14.669 42.5129 14.0967 42.75 13.5 42.75ZM31.5 36H18.495C17.8623 35.304 17.0912 34.7478 16.231 34.3672C15.3708 33.9867 14.4406 33.7901 13.5 33.7901C12.5594 33.7901 11.6292 33.9867 10.769 34.3672C9.90881 34.7478 9.13766 35.304 8.505 36H6.75V13.5C6.75 12.9033 6.98705 12.331 7.40901 11.909C7.83097 11.4871 8.40326 11.25 9 11.25H29.25C29.8467 11.25 30.419 11.4871 30.841 11.909C31.2629 12.331 31.5 12.9033 31.5 13.5V36ZM36 20.25H40.5C40.8493 20.25 41.1938 20.3313 41.5062 20.4875C41.8187 20.6438 42.0904 20.8706 42.3 21.15L45 24.75H36V20.25ZM40.5 42.75C40.055 42.75 39.62 42.618 39.25 42.3708C38.88 42.1236 38.5916 41.7722 38.4213 41.361C38.251 40.9499 38.2064 40.4975 38.2932 40.061C38.3801 39.6246 38.5943 39.2237 38.909 38.909C39.2237 38.5943 39.6246 38.38 40.061 38.2932C40.4975 38.2064 40.9499 38.251 41.361 38.4213C41.7722 38.5916 42.1236 38.88 42.3708 39.25C42.618 39.62 42.75 40.055 42.75 40.5C42.75 41.0967 42.5129 41.669 42.091 42.091C41.669 42.5129 41.0967 42.75 40.5 42.75ZM47.25 36H45.495C44.2977 34.6816 42.6279 33.8898 40.8494 33.7971C39.0709 33.7044 37.3279 34.3182 36 35.505V29.25H47.25V36Z" fill="#1E6099"/>
</svg>
