<svg width="54" height="54" viewBox="0 0 54 54" fill="none" xmlns="http://www.w3.org/2000/svg">
<path fill-rule="evenodd" clip-rule="evenodd" d="M38.0633 15.5362C38.0633 19.4298 37.0958 24.5081 35.6074 23.7374C34.9988 25.725 33.721 27.4406 31.9911 28.5931C30.2611 29.7455 28.1857 30.2637 26.1171 30.0596C24.0485 29.8555 22.1142 28.9418 20.6428 27.4736C19.1714 26.0053 18.2535 24.0731 18.045 22.0049C16.5679 19.4208 14.6306 14.2424 19.611 10.2059C19.701 10.1767 19.755 9.93369 19.836 9.57594C20.1443 8.22256 20.8271 5.21431 25.1348 5.78919C28.4569 6.23131 38.0633 7.94582 38.0633 15.5362ZM33.7815 17.9921C33.7815 17.9921 33.273 19.4793 33.75 21.1364C33.7438 22.9033 33.045 24.5974 31.8037 25.8548C30.5624 27.1123 28.8776 27.8328 27.1109 27.8619C25.3442 27.8909 23.6366 27.226 22.3547 26.01C21.0727 24.794 20.3187 23.1238 20.2545 21.3581C20.4176 20.7393 20.4176 19.6919 20.4165 18.5276C20.4154 16.4272 20.4131 13.9488 21.375 12.9386C28.1126 17.4262 33.7815 17.9921 33.7815 17.9921Z" fill="#1E6099"/>
<path d="M14.625 40.4999C14.625 39.2827 15.2696 38.2162 16.2371 37.6222C16.2004 37.4821 16.1659 37.3415 16.1336 37.2003C15.9636 36.4316 15.8303 35.6552 15.7343 34.8738C15.6383 34.125 15.5801 33.3717 15.5599 32.617C10.8113 34.4812 6.75 37.7302 6.75 41.1412V47.2499H47.25V41.1412C47.25 37.8742 43.5262 34.7568 39.0397 32.8612V32.8927C39.06 33.5789 39.0217 34.3664 38.9475 35.1236C38.88 35.8256 38.7799 36.5253 38.6595 37.1249H39.375C39.5839 37.125 39.7886 37.1833 39.9662 37.2932C40.1438 37.403 40.2874 37.5602 40.3808 37.7471L41.5058 39.9971C41.5845 40.1534 41.625 40.3255 41.625 40.4999V42.7499C41.625 43.0483 41.5065 43.3344 41.2955 43.5454C41.0845 43.7564 40.7984 43.8749 40.5 43.8749H38.25V41.6249H39.375V40.7654L38.6798 39.3749H35.5702L34.875 40.7654V41.6249H36V43.8749H33.75C33.4516 43.8749 33.1655 43.7564 32.9545 43.5454C32.7435 43.3344 32.625 43.0483 32.625 42.7499V40.4999C32.625 40.3255 32.6655 40.1534 32.7443 39.9971L33.8693 37.7471C33.9626 37.5602 34.1061 37.403 34.2838 37.2932C34.4614 37.1833 34.6661 37.125 34.875 37.1249H36.3544C36.3791 37.0282 36.4039 36.9209 36.4286 36.8032C36.5411 36.2733 36.6413 35.6017 36.7088 34.9075C36.7763 34.2123 36.8077 33.5227 36.7909 32.9557C36.7872 32.7208 36.7688 32.4863 36.7357 32.2537C36.711 32.0939 36.6862 32.0208 36.6817 32.005C36.6802 32.0013 36.6802 32.0005 36.6817 32.0028L36.6851 32.0017C36.0881 31.8165 35.4843 31.654 34.875 31.5145C34.3091 31.3852 33.7241 32.1637 33.4688 32.6508H20.25L20.1532 32.4618C19.9147 31.987 19.6211 31.4009 19.125 31.5145C18.6915 31.6128 18.2584 31.7242 17.8256 31.8487C17.8122 32.046 17.8062 32.2438 17.8076 32.4415C17.8121 33.0637 17.8717 33.8253 17.9674 34.5948C18.063 35.362 18.1924 36.109 18.3274 36.6985C18.3664 36.8688 18.4039 37.0203 18.4399 37.1531C19.0831 37.2376 19.6882 37.5057 20.183 37.9253C20.6777 38.3449 21.0411 38.8982 21.2295 39.5189C21.4179 40.1397 21.4235 40.8016 21.2455 41.4254C21.0674 42.0492 20.7134 42.6085 20.2258 43.0363C19.7381 43.4641 19.1375 43.7423 18.4959 43.8376C17.8542 43.9329 17.1987 43.8413 16.6077 43.5737C16.0168 43.3061 15.5155 42.8738 15.1638 42.3287C14.8122 41.7836 14.6251 41.1486 14.625 40.4999Z" fill="#1E6099"/>
<path d="M19.125 40.4991C19.125 41.1448 18.6053 41.6409 18 41.6409C17.3947 41.6409 16.875 41.1459 16.875 40.4991C16.875 39.8533 17.3947 39.3572 18 39.3572C18.6053 39.3572 19.125 39.8522 19.125 40.4991Z" fill="#1E6099"/>
</svg>
