<svg width="17" height="17" viewBox="0 0 17 17" fill="none" xmlns="http://www.w3.org/2000/svg">
<path d="M5.66671 2.125C6.02087 2.125 7.43754 5.3125 7.43754 5.66667C7.43754 6.375 6.37504 7.08333 6.02087 7.79167C5.66671 8.5 6.37504 9.20833 7.08337 9.91667C7.35962 10.1929 8.50004 11.3333 9.20837 10.9792C9.91671 10.625 10.625 9.5625 11.3334 9.5625C11.6875 9.5625 14.875 10.9792 14.875 11.3333C14.875 12.75 13.8125 13.8125 12.75 14.1667C11.6875 14.5208 10.9792 14.5208 9.56254 14.1667C8.14587 13.8125 7.08337 13.4583 5.31254 11.6875C3.54171 9.91667 3.18754 8.85417 2.83337 7.4375C2.47921 6.02083 2.47921 5.3125 2.83337 4.25C3.18754 3.1875 4.25004 2.125 5.66671 2.125Z" stroke="#1E6099" stroke-width="2" stroke-linecap="round" stroke-linejoin="round"/>
</svg>
