<svg width="20" height="20" viewBox="0 0 20 20" fill="none" xmlns="http://www.w3.org/2000/svg">
<path d="M16.5748 6.11666C16.4998 6.39166 16.1664 7.08332 15.5998 7.74166C15.2248 14.975 8.20812 17.325 3.39978 14.9C2.74145 14.025 5.77478 14.3833 6.88312 12.7083C2.69145 10.5667 3.02478 4.84166 3.86645 5.07499C5.84145 7.73332 9.02478 7.97499 9.54145 7.73332C9.54145 7.12499 9.28312 5.79999 10.7165 4.69166C11.5415 4.09999 13.2665 3.57499 14.8248 5.26666C15.0915 5.44166 15.4748 5.51666 16.0498 5.39166C16.3915 5.21666 16.8415 5.33332 16.6081 5.94166L16.5748 6.11666Z" fill="#1E6099" stroke="#1E6099" stroke-width="2" stroke-linecap="round" stroke-linejoin="round"/>
</svg>
